<?xml version="1.0" encoding="UTF-8" standalone="no"?>
<!-- Created with Inkscape (http://www.inkscape.org/) -->

<svg
   xmlns:dc="http://purl.org/dc/elements/1.1/"
   xmlns:cc="http://creativecommons.org/ns#"
   xmlns:rdf="http://www.w3.org/1999/02/22-rdf-syntax-ns#"
   xmlns:svg="http://www.w3.org/2000/svg"
   xmlns="http://www.w3.org/2000/svg"
   xmlns:sodipodi="http://sodipodi.sourceforge.net/DTD/sodipodi-0.dtd"
   xmlns:inkscape="http://www.inkscape.org/namespaces/inkscape"
   width="512"
   height="512"
   viewBox="0 0 135.46666 135.46667"
   version="1.1"
   id="svg8"
   inkscape:version="0.92.3 (2405546, 2018-03-11)"
   sodipodi:docname="icon.svg">
  <defs
     id="defs2" />
  <sodipodi:namedview
     id="base"
     pagecolor="#ffffff"
     bordercolor="#666666"
     borderopacity="1.0"
     inkscape:pageopacity="0.0"
     inkscape:pageshadow="2"
     inkscape:zoom="0.98994949"
     inkscape:cx="455.80323"
     inkscape:cy="220.21335"
     inkscape:document-units="mm"
     inkscape:current-layer="layer1"
     showgrid="false"
     units="px"
     inkscape:window-width="1920"
     inkscape:window-height="951"
     inkscape:window-x="0"
     inkscape:window-y="27"
     inkscape:window-maximized="1" />
  <metadata
     id="metadata5">
    <rdf:RDF>
      <cc:Work
         rdf:about="">
        <dc:format>image/svg+xml</dc:format>
        <dc:type
           rdf:resource="http://purl.org/dc/dcmitype/StillImage" />
        <dc:title />
      </cc:Work>
    </rdf:RDF>
  </metadata>
  <g
     inkscape:label="Layer 1"
     inkscape:groupmode="layer"
     id="layer1"
     transform="translate(0,-161.5333)">
    <circle
       style="opacity:1;fill:#f99d97;fill-opacity:0.85490196;stroke:#ff0725;stroke-width:0;stroke-linejoin:round;stroke-miterlimit:4;stroke-dasharray:none;stroke-opacity:1"
       id="path817"
       cx="68.000603"
       cy="229.26663"
       r="67.73333" />
    <path
       style="opacity:1;fill:#fccbc7;fill-opacity:1;stroke:#ff0725;stroke-width:0;stroke-linejoin:round;stroke-miterlimit:4;stroke-dasharray:none;stroke-opacity:1"
       d="m 116.43746,277.39377 a 67.73333,67.73333 0 0 0 4.50253,-90.50455 l -94.938867,95.45167 a 67.73333,67.73333 0 0 0 90.436337,-4.94712 z"
       id="path1119"
       inkscape:connector-curvature="0" />
    <path
       inkscape:connector-curvature="0"
       id="path1124"
       style="font-style:normal;font-variant:normal;font-weight:normal;font-stretch:normal;font-size:22.57777786px;line-height:1.25;font-family:Handlee;-inkscape-font-specification:'Handlee, Normal';font-variant-ligatures:normal;font-variant-caps:normal;font-variant-numeric:normal;font-feature-settings:normal;text-align:start;letter-spacing:0px;word-spacing:0px;writing-mode:lr-tb;text-anchor:start;fill:#100e17;fill-opacity:1;stroke:none;stroke-width:0.26458332"
       d="m 26.173204,238.371 q -0.36125,0.49671 -1.03858,0.49671 -0.18062,0 -0.36125,-0.0452 -0.49671,-1.12888 -0.74506,-3.18346 -0.22578,-2.07716 -0.33867,-2.73191 -2.46098,-0.0903 -4.92196,-0.0903 -2.46097,0 -4.40266,0.2032 -0.2032,0.92568 -0.45156,2.77706 -0.22578,1.8288 -0.33866,2.46098 -0.8128,0.65476 -1.46756,0.18062 0.0677,-0.54186 0.2032,-1.71591 0.13547,-1.17404 0.22578,-1.98684 0.11289,-0.83538 0.31609,-2.09974 0.2032,-1.26435 0.38382,-2.16746 0.2032,-0.92569 0.54187,-2.05458 0.33866,-1.15147 0.69991,-1.96427 0.36124,-0.8128 0.88053,-1.64818 0.54187,-0.83537 1.15147,-1.35466 1.39982,-1.15147 3.048,-1.15147 1.64817,0 2.73191,1.26436 1.10631,1.26435 1.67075,3.31893 0.56445,2.05458 0.90311,4.13173 0.33867,2.07716 0.65476,4.24463 0.31609,2.16746 0.65476,3.11573 z m -4.19947,-12.53067 q -0.42898,-1.10631 -1.10631,-1.71591 -0.67734,-0.63218 -1.67076,-0.63218 -0.99342,0 -1.91911,0.97085 -0.92569,0.97084 -1.46755,2.41582 -0.97085,2.68676 -1.2192,4.96711 2.25777,-0.24835 4.53813,-0.24835 2.28035,0 4.40267,0.13546 -0.0903,-0.33866 -0.33867,-1.60302 -0.24836,-1.26436 -0.51929,-2.21262 -0.24836,-0.97085 -0.69991,-2.07716 z" />
    <path
       inkscape:connector-curvature="0"
       id="path1126"
       style="font-style:normal;font-variant:normal;font-weight:normal;font-stretch:normal;font-size:22.57777786px;line-height:1.25;font-family:Handlee;-inkscape-font-specification:'Handlee, Normal';font-variant-ligatures:normal;font-variant-caps:normal;font-variant-numeric:normal;font-feature-settings:normal;text-align:start;letter-spacing:0px;word-spacing:0px;writing-mode:lr-tb;text-anchor:start;fill:#100e17;fill-opacity:1;stroke:none;stroke-width:0.26458332"
       d="m 40.902025,236.49703 0.2032,-13.99822 q 0.361249,-0.36125 0.767649,-0.36125 0.4064,0 0.63218,0.13547 0.158041,3.00285 0.158041,4.94453 l -0.180621,10.45352 q 0,0.45155 0,0.85795 -0.767649,0.49671 -1.264359,0.49671 l -0.27093,-0.0452 q -0.22578,-0.11289 -0.361241,-0.18063 -0.11289,-0.0452 -0.31609,-0.31608 -0.2032,-0.24836 -0.270939,-0.36125 -0.0677,-0.11289 -0.31609,-0.49671 -0.225771,-0.38382 -0.316081,-0.51929 -0.0903,-0.15804 -1.28694,-2.05458 -1.17404,-1.91911 -1.49013,-2.39324 -0.31609,-0.47413 -1.35467,-2.00942 -1.016,-1.53529 -1.60302,-2.28036 -1.73849,-2.21262 -3.20604,-3.56729 0.11288,2.95769 0.11288,6.32178 0,3.36409 -0.13546,7.17973 -0.27094,0.4064 -1.51271,0.4064 0,-12.75644 -0.0903,-15.71413 0.42897,-0.4064 0.83537,-0.4064 0.4064,0 0.79023,0.22578 0.58702,0.36124 1.30951,1.08373 2.39324,2.39325 4.51555,5.44125 2.14489,3.048 4.65103,7.15715 z" />
    <path
       inkscape:connector-curvature="0"
       id="path1128"
       style="font-style:normal;font-variant:normal;font-weight:normal;font-stretch:normal;font-size:22.57777786px;line-height:1.25;font-family:Handlee;-inkscape-font-specification:'Handlee, Normal';font-variant-ligatures:normal;font-variant-caps:normal;font-variant-numeric:normal;font-feature-settings:normal;text-align:start;letter-spacing:0px;word-spacing:0px;writing-mode:lr-tb;text-anchor:start;fill:#100e17;fill-opacity:1;stroke:none;stroke-width:0.26458332"
       d="m 46.777895,222.75847 q 0.72249,-0.47414 1.264359,-0.27094 0.270931,0.0903 0.2032,0.49671 -0.677339,4.4704 -0.677339,6.16374 0,1.67075 0.180629,2.91253 0.2032,1.2192 0.654751,2.57387 0.47413,1.33209 1.467559,2.16746 0.99342,0.8128 2.41582,0.8128 1.986841,0 3.47698,-2.41582 1.51271,-2.4384 1.51271,-5.84764 0,-3.43183 -1.60302,-6.7056 0.47413,-0.4064 0.835371,-0.4064 0.383829,0 0.587029,0.0677 1.80622,2.59644 1.80622,6.75076 0,3.40924 -1.761069,6.52497 -0.857951,1.46756 -2.25778,2.41583 -1.39982,0.92568 -2.93511,0.92568 -1.51271,0 -2.573861,-0.63217 -1.03858,-0.65476 -1.64818,-1.6256 -0.58702,-0.99343 -0.970849,-2.30294 -0.654751,-2.25777 -0.654751,-4.94453 0,-3.97369 0.677331,-6.66044 z" />
    <path
       inkscape:connector-curvature="0"
       id="path1130"
       style="font-style:normal;font-variant:normal;font-weight:normal;font-stretch:normal;font-size:22.57777786px;line-height:1.25;font-family:Handlee;-inkscape-font-specification:'Handlee, Normal';font-variant-ligatures:normal;font-variant-caps:normal;font-variant-numeric:normal;font-feature-settings:normal;text-align:start;letter-spacing:0px;word-spacing:0px;writing-mode:lr-tb;text-anchor:start;fill:#100e17;fill-opacity:1;stroke:none;stroke-width:0.26458332"
       d="m 63.181712,223.18743 q 0.857957,-0.56444 1.873957,-0.83537 1.016,-0.27094 2.00942,-0.27094 0.993423,0 1.85138,0.13547 0.880533,0.11289 1.783643,0.4064 0.92569,0.29351 1.51271,0.90311 0.587023,0.6096 0.654757,1.44498 0.02257,0.33866 -0.270934,0.51929 -0.270933,0.15804 -0.632176,0.15804 -0.338667,0 -0.51929,-0.15804 -0.158044,-0.18063 -0.31609,-0.51929 -0.857954,-1.73849 -3.74791,-1.73849 -1.964267,0 -3.228623,0.83538 -1.241777,0.83537 -1.241777,2.4384 0,0.90311 0.564443,1.55786 0.564447,0.63218 1.467557,0.99342 0.92569,0.36125 2.00942,0.65476 1.106313,0.29351 2.190046,0.65476 1.106311,0.36124 2.009424,0.85795 0.925687,0.49671 1.490133,1.39982 0.564443,0.88054 0.564443,2.12232 0,1.80622 -1.783643,3.07057 -1.761067,1.26436 -4.447823,1.26436 -2.077157,0 -4.064,-0.88053 -1.986844,-0.88054 -1.986844,-1.80623 0,-0.24835 0.29351,-0.45155 0.293511,-0.22578 0.564444,-0.22578 0.29351,0 0.541867,0.18062 0.248356,0.15805 0.564443,0.45156 0.31609,0.29351 0.564446,0.45155 1.715911,1.08374 3.838224,1.08374 1.49013,0 2.912533,-0.90311 1.4224,-0.92569 1.4224,-2.46098 0,-1.03858 -0.767646,-1.71591 -0.767644,-0.69991 -1.919111,-0.99343 -1.151466,-0.31608 -2.506133,-0.69991 -1.33209,-0.38382 -2.483556,-0.79022 -1.151467,-0.4064 -1.919111,-1.30951 -0.767646,-0.90311 -0.767646,-2.14489 0,-1.26435 0.51929,-2.19004 0.541867,-0.94827 1.399823,-1.49014 z" />
    <path
       inkscape:connector-curvature="0"
       id="path1132"
       style="font-style:normal;font-variant:normal;font-weight:normal;font-stretch:normal;font-size:22.57777786px;line-height:1.25;font-family:Handlee;-inkscape-font-specification:'Handlee, Normal';font-variant-ligatures:normal;font-variant-caps:normal;font-variant-numeric:normal;font-feature-settings:normal;text-align:start;letter-spacing:0px;word-spacing:0px;writing-mode:lr-tb;text-anchor:start;fill:#100e17;fill-opacity:1;stroke:none;stroke-width:0.26458332"
       d="m 86.887318,223.02939 q 0.338667,-0.54187 1.038577,-0.54187 0.270933,0 0.49671,0.13547 0.158046,2.46098 0.158046,4.85422 0,2.39324 -0.11289,6.07342 -0.09031,3.68018 -0.112889,4.76391 -0.541867,0.36125 -0.880531,0.36125 -0.338669,0 -0.51929,-0.0677 -0.135466,-1.19662 -0.135466,-2.4384 l 0.135466,-5.14773 q -1.94169,-0.18062 -4.334933,-0.18062 -2.393246,0 -4.98969,0.47413 -0.180623,4.4704 -0.180623,6.59271 -0.564444,0.45156 -0.925687,0.45156 -0.338667,0 -0.541867,-0.11289 -0.06773,-1.10631 -0.06773,-3.11573 0,-2.00943 0.270934,-6.63787 0.293513,-4.65102 0.31609,-5.37351 0.29351,-0.47413 1.016,-0.47413 0.225776,0 0.428976,0.0903 0.06773,0.63217 0.06773,1.60302 0,0.97084 -0.135466,2.98027 -0.135467,1.98684 -0.135467,2.75448 2.73191,-0.45155 5.057423,-0.45155 2.32551,0 4.109154,0.15804 0.06773,-0.83537 0.06773,-2.46097 0,-1.6256 -0.09031,-4.28978 z" />
    <path
       inkscape:connector-curvature="0"
       id="path1134"
       style="font-style:normal;font-variant:normal;font-weight:normal;font-stretch:normal;font-size:22.57777786px;line-height:1.25;font-family:Handlee;-inkscape-font-specification:'Handlee, Normal';font-variant-ligatures:normal;font-variant-caps:normal;font-variant-numeric:normal;font-feature-settings:normal;text-align:start;letter-spacing:0px;word-spacing:0px;writing-mode:lr-tb;text-anchor:start;fill:#100e17;fill-opacity:1;stroke:none;stroke-width:0.26458332"
       d="m 94.015192,222.54397 0.0677,5.30577 q 0,1.12889 -0.0677,2.19005 1.98684,-0.79022 3.52213,-1.87396 1.55787,-1.10631 2.39325,-2.07715 0.835368,-0.99342 1.444968,-1.85138 0.63218,-0.88053 1.08374,-1.39982 0.47413,-0.51929 0.88053,-0.51929 0.4064,0 0.79022,0.29351 -0.92569,2.32551 -2.61902,4.01884 -1.670758,1.67076 -4.244618,3.40925 1.19662,0.6096 2.25778,1.73849 1.083728,1.10631 1.783638,2.19004 1.96427,3.00285 3.68018,4.28978 -0.38382,0.58702 -1.12889,0.58702 -0.72249,0 -1.76107,-1.15146 -1.03858,-1.17405 -1.91911,-2.59645 -0.880528,-1.4224 -2.009418,-2.75449 -1.12889,-1.35466 -2.07716,-1.6256 -0.18062,0.0677 -0.92569,0.42898 -0.72248,0.33867 -1.15146,0.47413 0,3.81565 -0.11289,6.41209 -0.4064,0.4064 -1.467555,0.4064 -0.04516,-0.67733 -0.04516,-3.09315 l 0.09031,-12.35005 q 0.270933,-0.49671 1.015995,-0.49671 0.24836,0 0.51929,0.0452 z" />
    <path
       inkscape:connector-curvature="0"
       id="path1136"
       style="font-style:normal;font-variant:normal;font-weight:normal;font-stretch:normal;font-size:22.57777786px;line-height:1.25;font-family:Handlee;-inkscape-font-specification:'Handlee, Normal';font-variant-ligatures:normal;font-variant-caps:normal;font-variant-numeric:normal;font-feature-settings:normal;text-align:start;letter-spacing:0px;word-spacing:0px;writing-mode:lr-tb;text-anchor:start;fill:#100e17;fill-opacity:1;stroke:none;stroke-width:0.26458332"
       d="m 119.9239,238.371 q -0.36125,0.49671 -1.03858,0.49671 -0.18062,0 -0.36125,-0.0452 -0.49671,-1.12888 -0.74506,-3.18346 -0.22578,-2.07716 -0.33867,-2.73191 -2.46098,-0.0903 -4.92196,-0.0903 -2.46097,0 -4.40266,0.2032 -0.2032,0.92568 -0.45156,2.77706 -0.22578,1.8288 -0.33866,2.46098 -0.8128,0.65476 -1.46756,0.18062 0.0677,-0.54186 0.2032,-1.71591 0.13547,-1.17404 0.22578,-1.98684 0.11289,-0.83538 0.31609,-2.09974 0.2032,-1.26435 0.38382,-2.16746 0.2032,-0.92569 0.54187,-2.05458 0.33866,-1.15147 0.69991,-1.96427 0.36124,-0.8128 0.88053,-1.64818 0.54187,-0.83537 1.15147,-1.35466 1.39982,-1.15147 3.048,-1.15147 1.64817,0 2.73191,1.26436 1.10631,1.26435 1.67075,3.31893 0.56445,2.05458 0.90311,4.13173 0.33867,2.07716 0.65476,4.24463 0.31609,2.16746 0.65476,3.11573 z m -4.19947,-12.53067 q -0.42898,-1.10631 -1.10631,-1.71591 -0.67734,-0.63218 -1.67076,-0.63218 -0.99342,0 -1.91911,0.97085 -0.92569,0.97084 -1.46755,2.41582 -0.97085,2.68676 -1.2192,4.96711 2.25777,-0.24835 4.53813,-0.24835 2.28035,0 4.40267,0.13546 -0.0903,-0.33866 -0.33867,-1.60302 -0.24836,-1.26436 -0.51929,-2.21262 -0.24836,-0.97085 -0.69991,-2.07716 z" />
  </g>
</svg>
