<?xml version="1.0" encoding="UTF-8" standalone="no"?>
<svg
   xmlns:dc="http://purl.org/dc/elements/1.1/"
   xmlns:cc="http://creativecommons.org/ns#"
   xmlns:rdf="http://www.w3.org/1999/02/22-rdf-syntax-ns#"
   xmlns:svg="http://www.w3.org/2000/svg"
   xmlns="http://www.w3.org/2000/svg"
   xmlns:sodipodi="http://sodipodi.sourceforge.net/DTD/sodipodi-0.dtd"
   xmlns:inkscape="http://www.inkscape.org/namespaces/inkscape"
   width="512"
   height="512"
   viewBox="0 0 281.59998 281.59999"
   version="1.2"
   id="svg1227"
   sodipodi:docname="safari-pinned-tab.svg"
   inkscape:version="0.92.3 (2405546, 2018-03-11)"
   inkscape:export-filename="/home/ammar/Desktop/anublog (copy)/static/img/apple-touch-icon.png"
   inkscape:export-xdpi="36.000004"
   inkscape:export-ydpi="36.000004">
  <metadata
     id="metadata1231">
    <rdf:RDF>
      <cc:Work
         rdf:about="">
        <dc:format>image/svg+xml</dc:format>
        <dc:type
           rdf:resource="http://purl.org/dc/dcmitype/StillImage" />
        <dc:title></dc:title>
      </cc:Work>
    </rdf:RDF>
  </metadata>
  <sodipodi:namedview
     pagecolor="#ffffff"
     bordercolor="#666666"
     borderopacity="1"
     objecttolerance="10"
     gridtolerance="10"
     guidetolerance="10"
     inkscape:pageopacity="0"
     inkscape:pageshadow="2"
     inkscape:window-width="1920"
     inkscape:window-height="951"
     id="namedview1229"
     showgrid="false"
     inkscape:zoom="0.87705101"
     inkscape:cx="451.3175"
     inkscape:cy="327.76524"
     inkscape:window-x="0"
     inkscape:window-y="27"
     inkscape:window-maximized="1"
     inkscape:current-layer="surface635"
     fit-margin-top="-0.6"
     fit-margin-left="0"
     fit-margin-right="0"
     fit-margin-bottom="0"
     scale-x="0.55"
     units="px"
     inkscape:pagecheckerboard="true" />
  <defs
     id="defs182" />
  <g
     id="surface635"
     transform="matrix(0.71617771,0,0,0.71617771,66.730694,-83.793499)"
     style="display:inline">
    <rect
       style="opacity:1;fill:#222424;fill-opacity:1;stroke:#ff0725;stroke-width:0;stroke-linejoin:round;stroke-miterlimit:4;stroke-dasharray:none;stroke-opacity:1"
       id="rect981"
       width="303.84979"
       height="303.3316"
       x="122.39213"
       y="32.607502"
       rx="44.882469"
       transform="matrix(0.78986187,0.61328479,-0.61457336,0.78885967,0,0)" />
    <g
       id="g831"
       transform="rotate(-1.3005138,106.48754,312.6874)">
      <path
         inkscape:connector-curvature="0"
         id="text1025"
         d="m 8.7891268,285.63993 c -2.4783699,0.31493 -4.1497555,1.15026 -5.0144359,2.50716 -0.8646618,1.35689 -1.1938462,2.85359 -0.9860562,4.49002 0.4779177,3.76375 2.6387344,5.60956 6.4811726,5.53734 l 5.1207597,40.32775 c 0.903937,0.0869 1.69992,0.28943 2.377645,0.61692 0.995086,-0.9333 2.470764,-1.52592 4.429843,-1.77469 l -5.953161,-46.88319 c -3.594079,0.0675 -5.715943,-1.54406 -6.3663737,-4.83266 z m 42.2051402,-5.35914 -6.840482,25.99566 2.698463,4.73846 8.223594,-31.25239 z m 65.561723,-8.32493 -6.84049,25.99565 2.69846,4.73847 8.22361,-31.25239 z m 90.43336,-11.47417 c -2.15608,0.31786 -3.77409,0.9737 -4.84192,1.97744 -1.13531,0.97554 -1.5533,2.64986 -1.25201,5.02266 0.5195,4.09104 3.18458,5.83085 7.99558,5.21996 l 1.64146,-0.20821 5.27484,41.54124 c 1.08304,-1.06716 2.75398,-1.75103 5.02908,-2.03991 l 1.63999,-0.20802 -5.96879,-47.00631 -1.63999,0.20802 c -4.52101,0.57405 -7.14695,-0.92856 -7.87821,-4.50665 z m -254.812019,32.35666 c -2.107047,0.31923 -3.730136,0.93373 -4.857747,1.85286 -1.135309,0.97556 -1.548066,2.69115 -1.23638,5.14578 0.519479,4.09104 3.221609,5.82615 8.105505,5.206 l 6.888119,-0.87462 -9.580529,42.89591 c 1.112299,-0.71829 2.633403,-1.20407 4.576713,-1.45083 l 10.978912,-49.1583 -6.888119,0.87463 c -4.588908,0.58267 -7.250677,-0.91486 -7.986474,-4.49143 z m 196.685189,-24.9748 c -2.10666,0.31929 -3.73027,0.93385 -4.85774,1.85286 -1.1353,0.97556 -1.5466,2.69096 -1.23491,5.14559 0.5195,4.09104 3.22014,5.82634 8.10403,5.20619 l 6.88812,-0.87463 -9.58053,42.89592 c 1.1123,-0.71828 2.63487,-1.20426 4.57817,-1.45101 l 10.97892,-49.1583 -6.88958,0.87481 c -4.5889,0.58267 -7.25068,-0.91486 -7.98648,-4.49142 z m -72.702484,12.80422 c -0.812892,1.17857 -2.168013,1.99644 -4.073049,2.45016 l 0.835746,6.58182 c 0.582269,0.11111 1.217628,0.16227 1.908741,0.14929 l 5.102708,40.18559 c 1.001383,0.0365 1.871031,0.23067 2.606984,0.58185 0.988766,-0.82873 2.389766,-1.36525 4.218552,-1.59745 l -5.95316,-46.8832 c -2.011023,0.0378 -3.557105,-0.4551 -4.646526,-1.46806 z m 151.280484,-17.27641 0.86902,6.84416 5.40204,-0.68599 c 3.49891,-0.44428 6.4927,0.0911 8.98097,1.60419 2.47789,1.4313 3.88326,3.45543 4.21573,6.0737 0.0929,0.73035 0.0874,1.4433 -0.005,2.13917 0.84759,-0.49414 1.63538,-1.04455 2.35504,-1.66017 2.80183,-2.43427 4.00985,-5.16483 3.62543,-8.19222 -0.3321,-2.61831 -1.73783,-4.6424 -4.21574,-6.0737 -2.48828,-1.51312 -5.48205,-2.04847 -8.98097,-1.60418 z m -249.376445,35.78157 -3.066269,13.39294 5.265619,10.27245 9.320956,-1.18354 z m 196.685195,-24.9748 -3.06499,13.39129 5.26434,10.2741 9.32095,-1.18353 z m -112.131872,21.84513 -4.629635,18.30919 2.330272,18.35173 c 0.849667,-0.32489 1.84044,-0.56133 2.976649,-0.7056 l 3.826572,-0.48585 z m 65.561722,-8.32494 -4.62943,18.31067 2.33008,18.35025 c 0.84969,-0.3249 1.84037,-0.56131 2.97662,-0.70559 l 3.82659,-0.48585 z m -100.534815,12.89086 2.94438,23.18806 6.665338,11.56154 c 1.77962,-0.086 3.195493,0.17015 4.234534,0.78025 0.402684,0.19812 0.751553,0.48278 1.060583,0.83479 l 5.882732,-0.74703 1.81731,-7.18526 -5.791881,0.73543 z m 65.561732,-8.32493 2.944189,23.18658 6.665504,11.56303 c 1.77963,-0.086 3.1955,0.17013 4.23455,0.78024 0.40266,0.19812 0.75301,0.48259 1.06204,0.8346 l 5.88128,-0.74684 1.81731,-7.18526 -5.7919,0.73543 z m 163.612333,-5.34977 c -0.55833,0.50825 -1.13534,1.01334 -1.75318,1.50928 0.21104,0.16083 0.42336,0.34013 0.6346,0.50615 0.41465,-0.66339 0.78982,-1.33426 1.11858,-2.01543 z m -25.31032,8.49006 0.8692,6.84563 3.65217,-0.46379 c 2.44688,0.60383 6.11283,3.50514 10.99505,8.70502 4.94472,5.1088 9.13868,10.43782 12.58384,15.98644 l 8.63798,-1.09682 c 4.81097,-0.61091 6.95653,-2.96303 6.43706,-7.05408 -0.0313,-0.24659 -0.0708,-0.48374 -0.11737,-0.7133 -0.11551,0.018 -0.22591,0.0373 -0.34472,0.0527 l -8.63798,1.09682 c -3.44517,-5.54863 -7.63897,-10.87618 -12.58364,-15.98498 -4.88226,-5.19988 -8.54691,-8.10284 -10.9938,-8.70668 z m -261.906038,41.2385 -1.549101,7.1512 21.597927,-2.74243 1.0797977,2.14731 c 0.1748692,-0.26591 0.3744711,-0.50766 0.6124692,-0.71216 1.1249174,-1.0574 2.8540824,-1.73396 5.18669,-2.03015 l 2.5148599,-0.31966 -3.4187628,-6.79888 z m 196.686658,-24.97499 -1.54911,7.15121 21.59647,-2.74224 1.07999,2.14876 c 0.17507,-0.26653 0.37385,-0.50874 0.61228,-0.71363 1.12491,-1.05738 2.85407,-1.73394 5.1867,-2.03014 l 2.51484,-0.31966 -3.41874,-6.79888 z M -9.7900683,348.24269 c -2.1556577,0.31791 -3.7742287,0.97383 -4.8419197,1.97744 -1.135309,0.97555 -1.551842,2.64968 -1.250547,5.02248 0.519474,4.09104 3.184773,5.83232 7.9957681,5.22142 L 7.31107,358.53423 c 2.1626154,-0.27491 3.78188,-0.90452 4.867405,-1.88237 1.313381,0.6728 3.063288,0.87534 5.258137,0.59665 l 14.105995,-1.79118 c 4.810993,-0.61092 6.956508,-2.96304 6.437034,-7.05408 -0.03165,-0.24921 -0.07277,-0.48317 -0.115915,-0.7135 -0.11618,0.0181 -0.226694,0.0374 -0.346215,0.0529 l -14.104532,1.79098 c -2.194906,0.2791 -3.946006,0.0779 -5.259407,-0.59499 -1.085528,0.97783 -2.704936,1.6063 -4.86759,1.8809 l -15.1978375,1.92981 c -4.5210007,0.57405 -7.1469495,-0.92857 -7.8782128,-4.50667 z m 66.7649693,-8.47771 c -2.1561,0.31786 -3.774098,0.9737 -4.841941,1.97743 -1.1353,0.97555 -1.553307,2.64987 -1.252012,5.02267 0.51948,4.09104 3.184771,5.83231 7.995778,5.22142 l 14.214439,-1.80496 c 2.095535,-0.2662 3.684776,-0.86312 4.768996,-1.78947 1.29915,0.62335 3.011382,0.80152 5.138166,0.53146 l 14.105993,-1.79118 c 4.81099,-0.61092 6.95651,-2.96303 6.43704,-7.05407 -0.0316,-0.24921 -0.0728,-0.48317 -0.11591,-0.71349 -0.11616,0.0181 -0.22668,0.0374 -0.34621,0.0529 l -14.104517,1.79099 c -2.12676,0.27025 -3.838831,0.0933 -5.137978,-0.53 -1.084229,0.92637 -2.673625,1.52191 -4.769182,1.788 l -14.21444,1.80496 c -4.521,0.57405 -7.146948,-0.92855 -7.878201,-4.50665 z m 65.561719,-8.32494 c -2.15567,0.31791 -3.77424,0.97384 -4.84193,1.97744 -1.13531,0.97556 -1.55331,2.64986 -1.25202,5.02267 0.5195,4.09104 3.18623,5.83212 7.99725,5.22123 l 14.21297,-1.80477 c 2.02433,-0.25695 3.5717,-0.827 4.65227,-1.70018 1.26448,0.5753 2.90393,0.7407 4.92808,0.48368 l 14.54127,-1.84642 c 4.81101,-0.61092 6.95799,-2.96322 6.43851,-7.05426 -0.0313,-0.24661 -0.0718,-0.48363 -0.11884,-0.71313 -0.11521,0.0179 -0.22476,0.0371 -0.34328,0.0525 l -14.54273,1.8466 c -2.02416,0.25693 -3.66342,0.0931 -4.9279,-0.48222 -1.08058,0.87319 -2.62668,1.4415 -4.65099,1.69853 l -14.21445,1.80497 c -4.52099,0.57405 -7.14694,-0.92857 -7.8782,-4.50667 z m 64.35851,-8.17215 c -2.15537,0.31787 -3.77433,0.97394 -4.84193,1.97743 -1.1353,0.97557 -1.55184,2.64969 -1.25055,5.0225 0.5195,4.09103 3.18477,5.8323 7.99577,5.22141 l 15.19784,-1.9298 c 3.01663,-0.38284 4.98512,-1.45134 5.90601,-3.20262 1.32941,1.46511 3.49985,2.00828 6.51607,1.62528 l 16.40105,-2.08259 c 4.81099,-0.61092 6.95799,-2.96322 6.43851,-7.05426 -0.0313,-0.2466 -0.0718,-0.48362 -0.11884,-0.71312 -0.11521,0.0179 -0.22477,0.0371 -0.34329,0.0525 l -16.40105,2.08259 c -3.01621,0.38279 -5.18794,-0.15855 -6.51735,-1.62365 -0.9209,1.75126 -2.88815,2.81795 -5.90472,3.20098 l -15.19929,1.93 c -4.521,0.57405 -7.14696,-0.92857 -7.87822,-4.50667 z m -237.250241,30.12669 c -2.101726,0.31884 -3.689797,0.93028 -4.749115,1.84055 -1.208188,0.98482 -1.656699,2.70346 -1.345012,5.15809 0.51947,4.09104 3.184771,5.83231 7.995767,5.22142 l 14.542736,-1.84661 c 4.811002,-0.61092 6.956517,-2.96304 6.437043,-7.05408 -0.03131,-0.2466 -0.07038,-0.48379 -0.11738,-0.7133 -0.115506,0.018 -0.225932,0.0373 -0.34476,0.0527 l -14.54126,1.84641 c -4.520404,0.57398 -7.146356,-0.92811 -7.878017,-4.50519 z"
         style="font-style:normal;font-variant:normal;font-weight:bold;font-stretch:normal;font-size:118.56002045px;line-height:1.25;font-family:FreeMono;-inkscape-font-specification:'FreeMono, Bold';font-variant-ligatures:normal;font-variant-caps:normal;font-variant-numeric:normal;font-feature-settings:normal;text-align:start;letter-spacing:0px;word-spacing:0px;writing-mode:lr-tb;text-anchor:start;fill:#f5f5dc;fill-opacity:1;stroke:none;stroke-width:1.36843407" />
      <path
         inkscape:connector-curvature="0"
         id="text1051"
         d="m -52.608782,292.59328 c -2.332636,0.296 -4.102572,0.93599 -5.310774,1.9208 -1.135303,0.97557 -1.548058,2.69114 -1.236372,5.14578 0.519479,4.09104 3.221602,5.82615 8.1055,5.206 l 6.888126,-0.87462 -10.978923,49.15829 c -2.332633,0.296 -4.06683,0.93294 -5.202133,1.90851 -1.208195,0.98481 -1.656695,2.70344 -1.34501,5.15808 0.51947,4.09104 3.186227,5.83212 7.997233,5.22123 l 14.541263,-1.84642 c 4.39762,-0.55842 6.560609,-2.57636 6.504432,-6.04254 l -9.721034,1.2344 c -4.811004,0.61092 -7.476112,-1.12892 -7.995586,-5.21996 -0.311641,-2.45463 0.136628,-4.17473 1.34483,-5.15954 1.135296,-0.97557 2.869518,-1.61232 5.202128,-1.90851 l 10.979108,-49.15683 -6.888127,0.87463 c -4.883892,0.62018 -7.58621,-1.11642 -8.105686,-5.20747 -0.04487,-0.35314 -0.0699,-0.68532 -0.08479,-1.00783 z m 56.158714,-7.13095 c -2.4783699,0.31493 -4.149759,1.15024 -5.0144275,2.50715 -0.8646778,1.3569 -1.1938586,2.8536 -0.9860691,4.49002 0.4779157,3.76375 2.6387352,5.60955 6.4811768,5.53734 l 4.5094396,35.5134 3.0810312,5.94526 c 2.18402,-0.27768 3.936373,-0.0947 5.25895,0.54443 0.8099,-0.75957 1.943894,-1.28915 3.392328,-1.5953 l -3.842289,-30.25937 1.359842,2.35895 -2.433182,-19.16216 c -3.842435,0.0722 -6.0032626,-1.7736 -6.4811783,-5.53736 -0.04368,-0.34397 -0.059185,-0.67993 -0.055484,-1.01155 z m 42.205132,-5.35914 -5.339853,20.29214 6.549044,11.50185 8.696512,-33.05181 z m 65.561726,-8.32494 -5.33985,20.29214 6.54904,11.50186 8.69652,-33.05181 z m 32.75963,-4.15977 c -0.5598,0.0707 -1.08456,0.16281 -1.57955,0.27358 0.0682,0.29514 0.1282,0.59937 0.16948,0.92411 0.46756,3.68194 -1.16846,5.96938 -4.907,6.8598 l 0.0417,0.32829 c 0.90536,3.13718 3.51397,4.43536 7.83375,3.88684 l 6.88958,-0.87481 -9.1431,40.93421 0.34665,2.73033 c 1.76027,-0.22365 3.20906,-0.0761 4.35389,0.43003 1.12688,-0.79618 2.72089,-1.32838 4.78826,-1.59089 l 10.97912,-49.15682 -6.88814,0.87462 c -4.88389,0.62019 -7.5862,-1.11642 -8.10568,-5.20747 -0.0449,-0.35312 -0.0699,-0.68532 -0.0848,-1.00784 z m 58.01854,-7.3671 c -2.33269,0.296 -4.06181,0.97275 -5.18676,2.03014 -1.13525,0.97555 -1.55328,2.64985 -1.25199,5.02266 0.5195,4.09104 3.18605,5.83067 7.9971,5.21978 l 1.63996,-0.20802 5.34015,42.05564 c 1.93427,0.0791 3.40237,0.65345 4.39709,1.73204 0.91544,-1.76582 2.88558,-2.84294 5.91623,-3.22777 l 0.59651,-0.0755 -1.24942,-9.83976 1.04345,-0.13254 -1.55833,-12.27258 -1.04345,0.13253 -2.50911,-19.7601 1.04346,-0.13254 -0.65167,-5.13239 -1.63996,0.20802 c -4.81104,0.61093 -7.4763,-1.13037 -7.99577,-5.22142 -0.0449,-0.3535 -0.0674,-0.68591 -0.0804,-1.0084 z M 76.271926,281.54907 c -0.812873,1.1787 -2.169159,1.99804 -4.07433,2.4518 l 5.968605,47.00483 c 1.829086,-0.23258 3.320796,-0.0633 4.485392,0.49226 0.791699,-0.66375 1.852095,-1.13704 3.182501,-1.41826 l -3.842289,-30.25938 1.359834,2.35896 -2.433182,-19.16217 c -2.011218,0.0378 -3.557091,-0.45489 -4.646528,-1.46804 z m 151.280664,-17.27496 0.65166,5.1324 0.26819,-0.0341 c 3.49894,-0.44429 6.49273,0.091 8.98095,1.60418 2.4779,1.43131 3.88327,3.45544 4.21574,6.07372 0.25366,1.99901 -0.20175,3.86641 -1.33717,5.60682 3.68437,-0.71817 6.70022,-2.06922 9.03661,-4.06775 1.86009,-1.61609 3.01412,-3.36428 3.46987,-5.24175 -0.8828,-3.79875 -2.59647,-6.99939 -5.1417,-9.60166 -2.26042,-1.06362 -4.89128,-1.40868 -7.898,-1.02689 z m -249.912444,38.1162 -4.015632,17.53875 2.235409,4.3639 12.31948,-1.56432 z m 196.685564,-24.97188 -4.01563,17.53876 2.23504,4.36097 12.31948,-1.56432 z m -112.302144,22.2986 -7.396682,29.25017 1.28014,10.08156 -3.826565,0.48595 c -2.332633,0.296 -4.061776,0.97276 -5.18669,2.03014 -1.135303,0.97556 -1.553299,2.64986 -1.252003,5.02267 0.519471,4.09105 3.186227,5.83213 7.997234,5.22124 l 14.212972,-1.80478 c 2.095554,-0.26619 3.686249,-0.86327 4.77047,-1.78964 1.299148,0.62335 3.011377,0.80151 5.138168,0.53146 l 14.104526,-1.79099 c 4.39762,-0.55842 6.560619,-2.57636 6.504444,-6.04255 l -9.284325,1.17888 c -2.126766,0.27025 -3.839022,0.0919 -5.138169,-0.53147 -1.084222,0.92635 -2.67346,1.52338 -4.769005,1.78947 l -14.214434,1.80496 c -4.811004,0.61092 -7.476112,-1.12892 -7.995587,-5.21996 -0.301311,-2.3728 0.116701,-4.0471 1.252003,-5.02268 1.124917,-1.05736 2.852432,-1.73523 5.185041,-2.03142 l 2.78454,-0.35369 z m 65.561724,-8.32494 -7.39668,29.25017 1.28013,10.08158 -3.82656,0.48584 c -2.33264,0.296 -4.06179,0.97277 -5.18669,2.03015 -1.1353,0.97556 -1.55184,2.64967 -1.25054,5.02248 0.5195,4.09105 3.18476,5.83232 7.99577,5.22142 l 14.21442,-1.80496 c 2.02433,-0.25695 3.57024,-0.82682 4.65081,-1.69999 1.26448,0.57529 2.90395,0.74069 4.92809,0.48367 l 14.54273,-1.84661 c 4.39766,-0.55842 6.56064,-2.5763 6.50443,-6.04254 l -9.72104,1.2344 c -2.02417,0.25693 -3.66361,0.0916 -4.92809,-0.48369 -1.0806,0.87353 -2.62749,1.44309 -4.65226,1.70019 l -14.21445,1.80496 c -4.811,0.61092 -7.4761,-1.12892 -7.99559,-5.21996 -0.30121,-2.37281 0.11672,-4.04711 1.25202,-5.02267 1.12492,-1.05738 2.85242,-1.73524 5.18503,-2.03143 l 2.78454,-0.35369 z m -99.305223,14.23583 3.757802,29.59401 0.880697,1.52925 3.15239,-0.40048 c 1.588353,-0.20132 2.925708,-0.16708 4.023583,0.0922 l 3.098188,-0.39344 1.367069,-5.40659 -8.309979,-14.41598 -0.611706,2.32486 z m 65.561734,-8.32493 3.757774,29.59402 0.880698,1.52924 3.152397,-0.40047 c 1.58835,-0.20132 2.92571,-0.16709 4.02358,0.0922 l 3.09965,-0.39363 1.36726,-5.40513 -8.31163,-14.41726 -0.61172,2.32486 z m 137.778249,-0.99617 0.7572,5.96335 c 2.35187,1.20788 5.47855,3.87852 9.40805,8.06366 0.47128,0.48691 0.929,0.97709 1.38668,1.46799 0.4925,0.36302 0.90529,0.81508 1.23676,1.35449 3.8182,4.24179 7.14416,8.6283 9.96038,13.16398 l 8.63798,-1.09682 c 4.39759,-0.55842 6.56058,-2.57636 6.50442,-6.04254 l -3.81628,0.48461 c -1.40397,-2.26116 -2.93957,-4.48405 -4.59253,-6.67217 l -1.07569,0.13672 c -5.4543,-7.37202 -10.84584,-13.08837 -16.17614,-17.15054 0.0743,-0.0597 0.14179,-0.12086 0.21532,-0.18072 -0.71607,-0.40078 -1.37031,-0.68163 -1.94981,-0.82463 z m -261.906203,41.23703 -1.162474,5.36423 15.860265,-2.01395 3.418757,6.79888 -2.514854,0.31966 c -2.332634,0.296 -4.061776,0.97276 -5.186691,2.03014 -1.135305,0.97556 -1.551837,2.64967 -1.25054,5.02249 0.519471,4.09105 3.184764,5.83231 7.99577,5.22141 l 15.1978304,-1.9298 c 2.1626204,-0.27491 3.7818854,-0.90453 4.8674068,-1.88238 1.3133878,0.6728 3.0632818,0.87536 5.2581308,0.59665 L 26.303441,355.28 c 4.397613,-0.55842 6.560602,-2.57635 6.504433,-6.04253 l -9.284315,1.17887 c -2.1948,0.27909 -3.944746,0.0761 -5.258133,-0.59666 -1.085521,0.97786 -2.704747,1.60778 -4.867407,1.88238 l -15.1978301,1.9298 c -4.8110029,0.61092 -7.4761109,-1.12892 -7.9955859,-5.21996 -0.301292,-2.3728 0.115238,-4.04692 1.250541,-5.02248 1.124915,-1.05738 2.853894,-1.73542 5.1865029,-2.03161 l 1.1167218,-0.14206 -3.5169467,-6.78639 z m 196.685183,-24.9748 -1.16246,5.36423 15.86026,-2.01394 3.41876,6.79887 -2.51486,0.31966 c -2.33263,0.29599 -4.06177,0.97276 -5.18669,2.03014 -1.1353,0.97556 -1.55183,2.64967 -1.25054,5.02249 0.5195,4.09104 3.18476,5.83231 7.99577,5.22142 l 15.19784,-1.92981 c 3.01618,-0.38278 4.9835,-1.45158 5.90457,-3.20243 1.32933,1.46553 3.50238,2.00796 6.519,1.62491 l 16.40103,-2.08259 c 4.39767,-0.55843 6.56067,-2.57629 6.50443,-6.04254 l -11.58085,1.47048 c -3.01626,0.38279 -5.18664,-0.16018 -6.51607,-1.62529 -0.92087,1.75128 -2.88939,2.81959 -5.90601,3.20262 l -15.19782,1.9298 c -4.811,0.61092 -7.47612,-1.12892 -7.9956,-5.21995 -0.30121,-2.37282 0.11524,-4.04692 1.25055,-5.02249 1.12491,-1.05738 2.8539,-1.73542 5.18651,-2.03161 l 1.11671,-0.14205 -3.51694,-6.7864 z"
         style="font-style:normal;font-variant:normal;font-weight:bold;font-stretch:normal;font-size:118.56002045px;line-height:1.25;font-family:FreeMono;-inkscape-font-specification:'FreeMono, Bold';font-variant-ligatures:normal;font-variant-caps:normal;font-variant-numeric:normal;font-feature-settings:normal;text-align:start;letter-spacing:0px;word-spacing:0px;writing-mode:lr-tb;text-anchor:start;fill:#f5f5dc;fill-opacity:1;stroke:none;stroke-width:1.36843407" />
    </g>
  </g>
</svg>
